HIERARCHY
ROOT mixamorig:Hips
{
	OFFSET -0.000419 2.091508 -0.014164
	CHANNELS 6 Xposition Yposition Zposition Xrotation Yrotation Zrotation
	JOINT mixamorig:Spine
	{
		OFFSET -0.001948 0.198048 -0.038897
		CHANNELS 6 Xposition Yposition Zposition Xrotation Yrotation Zrotation
		JOINT mixamorig:Spine1
		{
			OFFSET -0.002704 0.235003 -0.023603
			CHANNELS 3 Xrotation Yrotation Zrotation
			JOINT mixamorig:Spine2
			{
				OFFSET -0.001091 0.278075 -0.011954
				CHANNELS 3 Xrotation Yrotation Zrotation
				JOINT mixamorig:Neck
				{
					OFFSET 0.005730 0.310620 0.037617
					CHANNELS 6 Xposition Yposition Zposition Xrotation Yrotation Zrotation
					JOINT mixamorig:Head
					{
						OFFSET 0.010419 0.222311 0.065134
						CHANNELS 6 Xposition Yposition Zposition Xrotation Yrotation Zrotation
						End Site
						{
							OFFSET 0.010419 0.222311 0.065135
						}
					}
				}
				JOINT mixamorig:LeftShoulder
				{
					OFFSET 0.129541 0.188949 0.026781
					CHANNELS 6 Xposition Yposition Zposition Xrotation Yrotation Zrotation
					JOINT mixamorig:LeftArm
					{
						OFFSET 0.262609 0.007741 -0.040542
						CHANNELS 3 Xrotation Yrotation Zrotation
						JOINT mixamorig:LeftForeArm
						{
							OFFSET 0.551277 -0.000001 -0.000000
							CHANNELS 6 Xposition Yposition Zposition Xrotation Yrotation Zrotation
							JOINT mixamorig:LeftHand
							{
								OFFSET 0.527734 -0.000000 0.000000
								CHANNELS 3 Xrotation Yrotation Zrotation
								End Site
								{
									OFFSET 0.527734 0.000000 0.000000
								}
							}
						}
					}
				}
				JOINT mixamorig:RightShoulder
				{
					OFFSET -0.126373 0.192154 0.021809
					CHANNELS 6 Xposition Yposition Zposition Xrotation Yrotation Zrotation
					JOINT mixamorig:RightArm
					{
						OFFSET -0.263354 0.004609 -0.054230
						CHANNELS 3 Xrotation Yrotation Zrotation
						JOINT mixamorig:RightForeArm
						{
							OFFSET -0.558427 -0.000001 -0.000000
							CHANNELS 6 Xposition Yposition Zposition Xrotation Yrotation Zrotation
							JOINT mixamorig:RightHand
							{
								OFFSET -0.503137 0.000000 -0.000000
								CHANNELS 6 Xposition Yposition Zposition Xrotation Yrotation Zrotation
								End Site
								{
									OFFSET -0.503137 0.000000 0.000000
								}
							}
						}
					}
				}
			}
		}
	}
	JOINT mixamorig:LeftUpLeg
	{
		OFFSET 0.185244 -0.138385 0.026620
		CHANNELS 6 Xposition Yposition Zposition Xrotation Yrotation Zrotation
		JOINT mixamorig:LeftLeg
		{
			OFFSET -0.004065 -0.852313 -0.015108
			CHANNELS 3 Xrotation Yrotation Zrotation
			JOINT mixamorig:LeftFoot
			{
				OFFSET 0.004508 -0.854151 -0.051445
				CHANNELS 3 Xrotation Yrotation Zrotation
				JOINT mixamorig:LeftToeBase
				{
					OFFSET 0.026925 -0.213949 0.242907
					CHANNELS 3 Xrotation Yrotation Zrotation
					End Site
					{
						OFFSET -0.005614 0.004268 0.324736
					}
				}
			}
		}
	}
	JOINT mixamorig:RightUpLeg
	{
		OFFSET -0.184403 -0.144117 0.001603
		CHANNELS 6 Xposition Yposition Zposition Xrotation Yrotation Zrotation
		JOINT mixamorig:RightLeg
		{
			OFFSET 0.005492 -0.848120 0.010027
			CHANNELS 6 Xposition Yposition Zposition Xrotation Yrotation Zrotation
			JOINT mixamorig:RightFoot
			{
				OFFSET -0.005940 -0.852616 -0.051576
				CHANNELS 3 Xrotation Yrotation Zrotation
				JOINT mixamorig:RightToeBase
				{
					OFFSET -0.031537 -0.214911 0.248182
					CHANNELS 6 Xposition Yposition Zposition Xrotation Yrotation Zrotation
					End Site
					{
						OFFSET -0.045720 0.003764 0.326606
					}
				}
			}
		}
	}
}
MOTION
Frames: 7
Frame Time: 0.033333
1.160778 1.830999 -0.295637 22.907421 -17.768363 3.073210 -0.001948 0.198048 -0.038898 20.802086 11.062062 -14.393058 -1.801800 2.159315 -2.886324 -1.760741 2.024519 -3.008255 0.005730 0.310620 0.037617 -9.066054 -1.443657 -1.433569 0.010418 0.222311 0.065134 -18.574703 -8.822279 -1.579922 0.129541 0.188949 0.026781 0.021152 1.200266 4.271786 7.193876 32.138441 -47.059464 0.551277 -0.000001 -0.000000 -0.000098 -71.914679 -0.000069 1.760786 -2.842021 25.047591 -0.126373 0.192153 0.021809 -0.321082 -1.827381 -9.973484 -39.584160 31.382445 10.223098 -0.558427 -0.000001 -0.000000 -0.000002 54.156829 0.000003 -0.503137 0.000000 -0.000000 -7.652222 28.585223 -9.685586 0.185244 -0.138385 0.026620 -70.340526 1.601546 17.782076 48.918177 4.519487 -10.343275 0.168916 25.403536 4.698653 -6.507224 0.000008 0.000000 -0.184403 -0.144116 0.001603 9.978374 -6.262289 3.903844 0.005493 -0.848120 0.010027 20.299184 -5.740362 0.829872 21.525312 4.222145 29.913616 -0.031537 -0.214911 0.248182 -6.189834 0.016966 -0.925896 
1.192366 1.834287 -0.343643 23.821804 -19.320209 5.054850 -0.001948 0.198048 -0.038898 18.815549 12.980162 -15.145393 -1.253353 2.379538 -3.345049 -1.197104 2.252763 -3.454196 0.005730 0.310620 0.037617 -8.914192 -1.596513 -1.387630 0.010418 0.222311 0.065134 -17.528941 -9.560443 -1.454714 0.129541 0.188949 0.026782 -0.090788 2.056926 4.418418 11.435891 31.855162 -51.257250 0.551278 -0.000001 -0.000000 -0.000088 -70.888901 -0.000067 2.011292 -2.688949 24.209255 -0.126373 0.192154 0.021809 -0.540430 -2.698620 -11.153862 -42.222081 35.662993 13.766011 -0.558427 -0.000000 -0.000001 -0.000003 58.052578 0.000008 -0.503137 0.000000 -0.000000 -6.249584 31.939051 -9.192542 0.185244 -0.138386 0.026620 -70.264178 1.426125 16.337258 45.185175 4.099284 -10.381231 2.821377 28.161281 5.167083 -6.604135 0.000006 0.000001 -0.184403 -0.144117 0.001603 14.887297 -6.039760 5.911989 0.005492 -0.848120 0.010027 10.343394 -2.489096 1.858285 28.588725 5.957253 29.128291 -0.031537 -0.214911 0.248182 -7.978791 0.008344 -0.465792 
1.231664 1.830922 -0.391346 24.219665 -20.625247 6.778895 -0.001948 0.198048 -0.038897 17.695610 14.198785 -15.405514 -0.870332 2.528333 -3.866155 -0.796361 2.401394 -3.965023 0.005730 0.310620 0.037616 -8.583438 -1.725896 -1.357755 0.010419 0.222311 0.065134 -16.781182 -10.163024 -1.401625 0.129541 0.188949 0.026781 -0.226995 3.095886 4.495018 15.557498 31.180073 -55.069681 0.551277 -0.000001 -0.000000 -0.000029 -70.313621 -0.000003 3.077997 -2.521609 23.463141 -0.126373 0.192154 0.021809 -0.704891 -3.279788 -12.037484 -45.386327 39.055650 18.003392 -0.558427 -0.000000 -0.000000 0.000004 62.980662 -0.000001 -0.503137 0.000000 -0.000000 -2.869090 32.611585 -9.181238 0.185244 -0.138385 0.026620 -70.225826 1.219918 14.614650 42.257988 3.749960 -10.005004 5.363160 29.667825 5.142560 -6.924658 0.000023 0.000010 -0.184403 -0.144116 0.001603 19.237028 -5.322654 7.323617 0.005492 -0.848120 0.010027 0.747685 -1.476488 2.470724 34.844101 6.494598 25.884786 -0.031537 -0.214911 0.248182 -15.982504 0.118620 -1.801656 
1.266765 1.819965 -0.450233 24.009011 -21.615486 8.045223 -0.001948 0.198048 -0.038898 17.571643 14.763087 -15.048249 -0.726154 2.621756 -4.413899 -0.631051 2.483101 -4.510556 0.005730 0.310619 0.037617 -8.063740 -1.805877 -1.431188 0.010419 0.222311 0.065134 -16.414949 -10.610379 -1.467346 0.129541 0.188949 0.026781 -0.324944 3.956659 4.341483 19.482189 30.338321 -58.260482 0.551277 -0.000001 -0.000000 -0.000065 -70.246358 -0.000026 4.291457 -2.432758 23.216892 -0.126373 0.192154 0.021809 -0.754080 -3.433303 -12.360528 -48.346528 41.774400 21.814945 -0.558427 -0.000000 -0.000001 -0.000002 68.569738 0.000012 -0.503137 0.000000 -0.000000 1.130390 30.648999 -9.173350 0.185244 -0.138386 0.026620 -70.348230 0.968721 13.317678 39.951262 3.474281 -9.629758 7.723502 29.939673 4.551211 -7.455748 0.000004 0.000001 -0.184403 -0.144117 0.001603 18.935596 -4.795177 8.242623 0.005492 -0.848120 0.010027 0.749369 -2.504504 2.648781 33.343460 4.838233 20.341748 -0.031537 -0.214911 0.248182 -32.475412 1.445300 -7.770538 
1.311821 1.798394 -0.511679 23.188933 -22.179795 8.856004 -0.001948 0.198048 -0.038898 18.459092 14.878387 -14.231834 -0.803645 2.692493 -4.909306 -0.686013 2.531176 -5.014905 0.005730 0.310620 0.037617 -7.488908 -1.808603 -1.690260 0.010419 0.222311 0.065134 -16.421853 -10.872818 -1.727939 0.129541 0.188948 0.026782 -0.336924 4.228488 4.064580 22.946698 29.384642 -60.947042 0.551277 -0.000001 -0.000000 -0.000037 -70.445478 -0.000009 5.256921 -2.606046 23.180673 -0.126373 0.192153 0.021809 -0.708434 -3.299027 -12.061777 -50.512029 43.893661 24.457893 -0.558427 -0.000000 -0.000000 0.000002 74.357093 0.000000 -0.503137 0.000000 0.000000 3.580356 27.138701 -8.418594 0.185244 -0.138385 0.026620 -71.179129 0.939392 12.117531 39.295608 2.959280 -9.682411 7.697207 29.940134 4.663064 -7.919271 0.000004 0.000003 -0.184403 -0.144116 0.001603 17.122379 -4.250938 8.641778 0.005493 -0.848120 0.010027 5.212686 -5.202998 2.474613 24.601769 2.457414 13.816199 -0.031537 -0.214911 0.248182 -43.598877 2.471159 -10.284590 
1.353296 1.764845 -0.575968 21.705803 -22.349687 9.245053 -0.001948 0.198048 -0.038898 20.462079 14.646043 -13.220669 -1.100516 2.749648 -5.203843 -0.965387 2.558778 -5.331167 0.005730 0.310620 0.037616 -7.087987 -1.723471 -2.142555 0.010418 0.222311 0.065134 -16.715626 -10.908467 -2.275220 0.129541 0.188949 0.026781 -0.281946 3.969634 3.705515 25.631333 28.105108 -63.225490 0.551277 -0.000002 -0.000000 -0.000091 -70.443340 -0.000035 6.605066 -2.677721 22.782991 -0.126373 0.192153 0.021809 -0.654770 -3.133821 -11.666818 -52.025472 45.337296 26.328892 -0.558427 -0.000001 -0.000001 0.000004 79.857103 0.000015 -0.503137 0.000000 -0.000000 3.679918 23.981223 -7.230752 0.185244 -0.138385 0.026620 -72.357638 1.081375 11.119411 39.542093 2.414641 -9.929927 7.468773 29.937074 4.365221 -7.958729 -0.000015 -0.000002 -0.184403 -0.144116 0.001603 15.405838 -3.770479 9.077159 0.005493 -0.848120 0.010027 11.510523 -7.987920 2.063208 11.109683 0.369012 7.969168 -0.031537 -0.214911 0.248182 -46.322049 1.557700 -5.991445 
1.395391 1.724916 -0.643525 19.442340 -22.335817 9.123549 -0.001948 0.198048 -0.038898 23.612681 14.078199 -12.109027 -1.486494 2.760705 -5.152538 -1.345773 2.541804 -5.308120 0.005730 0.310620 0.037616 -7.066875 -1.570390 -2.685554 0.010419 0.222311 0.065134 -17.158094 -10.688175 -3.181224 0.129541 0.188949 0.026781 -0.219798 3.711547 3.134071 27.168744 26.185356 -65.058016 0.551277 -0.000001 -0.000001 -0.000057 -69.772896 -0.000032 9.136138 -2.229297 22.100662 -0.126373 0.192153 0.021809 -0.676109 -3.186084 -11.910464 -53.761840 46.120227 28.488687 -0.558427 -0.000001 -0.000001 -0.000078 84.661335 0.000096 -0.503137 0.000000 -0.000000 2.787048 22.799327 -6.456968 0.185244 -0.138385 0.026620 -73.173736 1.353026 9.823651 39.709060 1.965649 -9.891157 7.415495 29.753339 3.859412 -7.479745 0.000012 0.000003 -0.184403 -0.144117 0.001603 14.052361 -3.447730 9.494885 0.005493 -0.848120 0.010027 18.516199 -9.758473 1.582902 -2.793096 -1.241010 4.396765 -0.031537 -0.214911 0.248182 -44.367847 0.727004 -2.914212 
